<svg width="18" height="22" viewBox="0 0 18 22" fill="none" xmlns="http://www.w3.org/2000/svg">
<path d="M17.9233 0.840029C17.9076 0.813817 17.89 0.788754 17.8708 0.765029C17.836 0.698086 17.7875 0.639288 17.7283 0.592529H17.6608C17.6019 0.557483 17.5389 0.529777 17.4733 0.510029L17.3233 0.405029H17.2483H5.99829C5.79938 0.405029 5.60861 0.484047 5.46796 0.624699C5.32731 0.765351 5.24829 0.956117 5.24829 1.15503V5.65503C5.24829 5.85394 5.32731 6.04471 5.46796 6.18536C5.60861 6.32601 5.79938 6.40503 5.99829 6.40503C6.1972 6.40503 6.38797 6.32601 6.52862 6.18536C6.66927 6.04471 6.74829 5.85394 6.74829 5.65503V1.90503H12.1408L9.53079 2.65503C9.37136 2.70318 9.23248 2.80302 9.13607 2.93881C9.03965 3.07461 8.99118 3.23864 8.99829 3.40503V17.655H6.74829V15.405C6.74829 15.2061 6.66927 15.0154 6.52862 14.8747C6.38797 14.734 6.1972 14.655 5.99829 14.655C5.79938 14.655 5.60861 14.734 5.46796 14.8747C5.32731 15.0154 5.24829 15.2061 5.24829 15.405V18.405C5.24829 18.6039 5.32731 18.7947 5.46796 18.9354C5.60861 19.076 5.79938 19.155 5.99829 19.155H8.99829V20.655C8.99829 20.7715 9.0254 20.8863 9.07747 20.9904C9.12954 21.0946 9.20514 21.1852 9.29829 21.255C9.42811 21.3524 9.58601 21.405 9.74829 21.405C9.82041 21.4156 9.89368 21.4156 9.96579 21.405L17.4658 19.155C17.6252 19.1069 17.7641 19.007 17.8605 18.8712C17.9569 18.7354 18.0054 18.5714 17.9983 18.405V1.15503C17.9965 1.04582 17.9709 0.938316 17.9233 0.840029ZM16.4983 17.85L10.4983 19.65V3.96003L16.4983 2.16003V17.85Z" fill="#C4CCBD"/>
<path d="M2.55579 11.6549H7.49829C7.6972 11.6549 7.88797 11.5759 8.02862 11.4353C8.16927 11.2946 8.24829 11.1038 8.24829 10.9049C8.24829 10.706 8.16927 10.5152 8.02862 10.3746C7.88797 10.2339 7.6972 10.1549 7.49829 10.1549H2.55579L3.53079 9.18742C3.67202 9.0462 3.75136 8.85465 3.75136 8.65492C3.75136 8.4552 3.67202 8.26365 3.53079 8.12242C3.38956 7.9812 3.19802 7.90186 2.99829 7.90186C2.79856 7.90186 2.60702 7.9812 2.46579 8.12242L0.21579 10.3724C0.147509 10.4438 0.0939853 10.5279 0.0582896 10.6199C-0.016724 10.8025 -0.016724 11.0073 0.0582896 11.1899C0.0939853 11.282 0.147509 11.3661 0.21579 11.4374L2.46579 13.6874C2.53551 13.7577 2.61846 13.8135 2.70986 13.8516C2.80125 13.8897 2.89928 13.9093 2.99829 13.9093C3.0973 13.9093 3.19533 13.8897 3.28672 13.8516C3.37812 13.8135 3.46107 13.7577 3.53079 13.6874C3.60109 13.6177 3.65688 13.5348 3.69496 13.4434C3.73303 13.352 3.75264 13.2539 3.75264 13.1549C3.75264 13.0559 3.73303 12.9579 3.69496 12.8665C3.65688 12.7751 3.60109 12.6921 3.53079 12.6224L2.55579 11.6549Z" fill="#C4CCBD"/>
<path d="M11.9983 11.655C12.1972 11.655 12.388 11.576 12.5286 11.4354C12.6693 11.2947 12.7483 11.1039 12.7483 10.905C12.7483 10.7061 12.6693 10.5154 12.5286 10.3747C12.388 10.234 12.1972 10.155 11.9983 10.155C11.7994 10.155 11.6086 10.234 11.468 10.3747C11.3273 10.5154 11.2483 10.7061 11.2483 10.905C11.2483 11.1039 11.3273 11.2947 11.468 11.4354C11.6086 11.576 11.7994 11.655 11.9983 11.655Z" fill="#C4CCBD"/>
</svg>
