<svg width="18" height="22" viewBox="0 0 18 22" fill="none" xmlns="http://www.w3.org/2000/svg">
<path d="M17.9252 0.840029C17.9095 0.813817 17.892 0.788754 17.8727 0.765029C17.838 0.698086 17.7894 0.639288 17.7302 0.592529H17.6627C17.6038 0.557483 17.5409 0.529777 17.4752 0.510029C17.4328 0.505818 17.3901 0.505818 17.3477 0.510029L17.2502 0.405029H6.00024C5.80133 0.405029 5.61057 0.484047 5.46991 0.624699C5.32926 0.765351 5.25024 0.956117 5.25024 1.15503V5.65503C5.25024 5.85394 5.32926 6.04471 5.46991 6.18536C5.61057 6.32601 5.80133 6.40503 6.00024 6.40503C6.19916 6.40503 6.38992 6.32601 6.53057 6.18536C6.67123 6.04471 6.75024 5.85394 6.75024 5.65503V1.90503H12.1427L9.53274 2.65503C9.37331 2.70318 9.23444 2.80302 9.13802 2.93881C9.04161 3.07461 8.99313 3.23864 9.00024 3.40503V17.655H6.75024V15.405C6.75024 15.2061 6.67123 15.0154 6.53057 14.8747C6.38992 14.734 6.19916 14.655 6.00024 14.655C5.80133 14.655 5.61057 14.734 5.46991 14.8747C5.32926 15.0154 5.25024 15.2061 5.25024 15.405V18.405C5.25024 18.6039 5.32926 18.7947 5.46991 18.9354C5.61057 19.076 5.80133 19.155 6.00024 19.155H9.00024V20.655C9.00024 20.7715 9.02735 20.8863 9.07942 20.9904C9.13149 21.0946 9.2071 21.1852 9.30024 21.255C9.43007 21.3524 9.58797 21.405 9.75024 21.405C9.82236 21.4156 9.89563 21.4156 9.96774 21.405L17.4677 19.155C17.6272 19.1069 17.766 19.007 17.8625 18.8712C17.9589 18.7354 18.0074 18.5714 18.0002 18.405V1.15503C17.9985 1.04582 17.9729 0.938316 17.9252 0.840029ZM16.5002 17.85L10.5002 19.65V3.96003L16.5002 2.16003V17.85Z" fill="#C4CCBD"/>
<path d="M5.78274 13.6874L8.03274 11.4374C8.10102 11.3661 8.15455 11.282 8.19024 11.1899C8.26526 11.0073 8.26526 10.8025 8.19024 10.6199C8.15455 10.5279 8.10102 10.4438 8.03274 10.3724L5.78274 8.12242C5.64152 7.9812 5.44997 7.90186 5.25024 7.90186C5.05052 7.90186 4.85897 7.9812 4.71774 8.12242C4.57652 8.26365 4.49718 8.4552 4.49718 8.65492C4.49718 8.85465 4.57652 9.0462 4.71774 9.18742L5.69274 10.1549H0.750244C0.551332 10.1549 0.360566 10.2339 0.219914 10.3746C0.0792619 10.5152 0.000244141 10.706 0.000244141 10.9049C0.000244141 11.1038 0.0792619 11.2946 0.219914 11.4353C0.360566 11.5759 0.551332 11.6549 0.750244 11.6549H5.69274L4.71774 12.6224C4.64745 12.6921 4.59165 12.7751 4.55358 12.8665C4.5155 12.9579 4.4959 13.0559 4.4959 13.1549C4.4959 13.2539 4.5155 13.352 4.55358 13.4434C4.59165 13.5348 4.64745 13.6177 4.71774 13.6874C4.78747 13.7577 4.87042 13.8135 4.96181 13.8516C5.05321 13.8897 5.15124 13.9093 5.25024 13.9093C5.34925 13.9093 5.44728 13.8897 5.53868 13.8516C5.63007 13.8135 5.71302 13.7577 5.78274 13.6874Z" fill="#C4CCBD"/>
<path d="M12.0002 11.655C12.1992 11.655 12.3899 11.576 12.5306 11.4354C12.6712 11.2947 12.7502 11.1039 12.7502 10.905C12.7502 10.7061 12.6712 10.5154 12.5306 10.3747C12.3899 10.234 12.1992 10.155 12.0002 10.155C11.8013 10.155 11.6106 10.234 11.4699 10.3747C11.3293 10.5154 11.2502 10.7061 11.2502 10.905C11.2502 11.1039 11.3293 11.2947 11.4699 11.4354C11.6106 11.576 11.8013 11.655 12.0002 11.655Z" fill="#C4CCBD"/>
</svg>
