<svg width="24" height="24" viewBox="0 0 24 24" fill="none" xmlns="http://www.w3.org/2000/svg">
<path fill-rule="evenodd" clip-rule="evenodd" d="M7.95707 5.3999H16.043C16.9492 5.39988 17.6898 5.39987 18.2745 5.47848C18.8857 5.56065 19.4155 5.73847 19.8385 6.16143C20.2615 6.58438 20.4393 7.11425 20.5215 7.72541C20.6001 8.3101 20.6 9.05069 20.6 9.95695V14.0429C20.6 14.9491 20.6001 15.6897 20.5215 16.2744C20.4393 16.8856 20.2615 17.4154 19.8385 17.8384C19.4155 18.2613 18.8857 18.4392 18.2745 18.5213C17.6898 18.5999 16.9492 18.5999 16.043 18.5999H7.95708C7.05081 18.5999 6.31022 18.5999 5.72553 18.5213C5.11437 18.4392 4.5845 18.2613 4.16155 17.8384C3.73859 17.4154 3.56077 16.8856 3.4786 16.2744C3.39999 15.6897 3.40001 14.9491 3.40003 14.0429V9.95695C3.40001 9.05068 3.39999 8.3101 3.4786 7.72541C3.56077 7.11425 3.73859 6.58438 4.16155 6.16143C4.5845 5.73847 5.11437 5.56065 5.72553 5.47848C6.31022 5.39987 7.05081 5.39988 7.95707 5.3999ZM5.88543 6.66778C5.40734 6.73205 5.17291 6.84712 5.01008 7.00995C4.84724 7.17279 4.73218 7.40721 4.6679 7.88531C4.6013 8.38066 4.60003 9.04013 4.60003 9.9999V13.9999C4.60003 14.9597 4.6013 15.6191 4.6679 16.1145C4.73218 16.5926 4.84724 16.827 5.01008 16.9899C5.17291 17.1527 5.40734 17.2678 5.88543 17.332C6.38079 17.3986 7.04025 17.3999 8.00003 17.3999H16C16.9598 17.3999 17.6193 17.3986 18.1146 17.332C18.5927 17.2678 18.8271 17.1527 18.99 16.9899C19.1528 16.827 19.2679 16.5926 19.3322 16.1145C19.3988 15.6191 19.4 14.9597 19.4 13.9999V9.9999C19.4 9.04013 19.3988 8.38066 19.3322 7.88531C19.2679 7.40721 19.1528 7.17279 18.99 7.00995C18.8271 6.84712 18.5927 6.73205 18.1146 6.66778C17.6193 6.60118 16.9598 6.5999 16 6.5999H8.00003C7.04025 6.5999 6.38079 6.60118 5.88543 6.66778Z" fill="white"/>
<path d="M11.1056 12.5528L4 9V16C4 17.1046 4.89543 18 6 18H18C19.1046 18 20 17.1046 20 16V9L12.8944 12.5528C12.3314 12.8343 11.6686 12.8343 11.1056 12.5528Z" fill="white"/>
</svg>
