<svg width="12" height="22" viewBox="0 0 12 22" fill="none" xmlns="http://www.w3.org/2000/svg">
<path fill-rule="evenodd" clip-rule="evenodd" d="M3.50342 11.073V20.3492C3.50342 20.4745 3.60789 20.5999 3.75413 20.5999H7.20136C7.32671 20.5999 7.45206 20.4954 7.45206 20.3492V10.9059H9.93824C10.0636 10.9059 10.1681 10.8014 10.189 10.6761L10.3979 7.85562C10.4188 7.70937 10.2934 7.58402 10.1472 7.58402H7.43117V5.57836C7.43117 5.09783 7.80723 4.72177 8.28775 4.72177H10.2098C10.3352 4.72177 10.4606 4.61731 10.4606 4.47107V1.65061C10.4606 1.52526 10.3561 1.3999 10.2098 1.3999H6.95065C5.04945 1.3999 3.50342 2.94593 3.50342 4.84713V7.58402H1.79026C1.6649 7.58402 1.53955 7.68848 1.53955 7.83472V10.6761C1.53955 10.8014 1.64401 10.9268 1.79026 10.9268H3.50342V11.073V11.073Z" stroke="white" stroke-width="1.5"/>
</svg>
