<svg width="16" height="16" viewBox="0 0 16 16" fill="none" xmlns="http://www.w3.org/2000/svg">
<path d="M15.1568 5.03205C15.1449 4.43467 15.0319 3.84362 14.8224 3.28405C14.6414 2.80359 14.3577 2.3684 13.9912 2.00885C13.6316 1.64233 13.1965 1.35867 12.716 1.17765C12.1567 0.968258 11.5659 0.85519 10.9688 0.843249C10.2 0.808049 9.9552 0.800049 8 0.800049C6.0448 0.800049 5.8 0.808049 5.032 0.843249C4.43462 0.8551 3.84357 0.968169 3.284 1.17765C2.80325 1.35857 2.36778 1.64223 2.008 2.00885C1.64148 2.3684 1.35782 2.80359 1.1768 3.28405C0.967408 3.84337 0.85434 4.43414 0.842399 5.03125C0.807999 5.80005 0.799999 6.04485 0.799999 8.00005C0.799999 9.95525 0.807999 10.2 0.843199 10.968C0.85505 11.5654 0.96812 12.1565 1.1776 12.716C1.35862 13.1965 1.64228 13.6317 2.0088 13.9913C2.36834 14.3578 2.80353 14.6415 3.284 14.8224C3.84332 15.0318 4.43409 15.1449 5.0312 15.1568C5.8 15.192 6.0448 15.2 8 15.2C9.9552 15.2 10.2 15.192 10.968 15.1568C11.5654 15.145 12.1564 15.0319 12.716 14.8224C13.1945 14.6375 13.629 14.3545 13.9918 13.9918C14.3545 13.6291 14.6374 13.1945 14.8224 12.716C15.0318 12.1567 15.1449 11.566 15.1568 10.9689C15.192 10.2001 15.2 9.95525 15.2 8.00005C15.2 6.04485 15.192 5.80005 15.1568 5.03205ZM13.8608 10.9096C13.8553 11.3659 13.7714 11.8178 13.6128 12.2456C13.4931 12.5563 13.3097 12.8385 13.0744 13.0739C12.839 13.3094 12.557 13.493 12.2464 13.6129C11.8183 13.7715 11.3661 13.8554 10.9096 13.8609C10.1496 13.8953 9.9224 13.9024 8 13.9024C6.0776 13.9024 5.8496 13.8953 5.0904 13.8609C4.63415 13.8553 4.18224 13.7714 3.7544 13.6129C3.44135 13.4976 3.15813 13.3136 2.9256 13.0745C2.68651 12.8422 2.50253 12.5592 2.3872 12.2464C2.22852 11.8184 2.14463 11.3662 2.1392 10.9096C2.1048 10.1496 2.0976 9.92245 2.0976 8.00005C2.0976 6.07765 2.1048 5.84965 2.1392 5.09045C2.14473 4.6342 2.22862 4.18229 2.3872 3.75445C2.50243 3.4414 2.68641 3.15818 2.9256 2.92565C3.1579 2.68656 3.44083 2.50258 3.7536 2.38725C4.18169 2.22858 4.63388 2.14469 5.0904 2.13925C5.8504 2.10485 6.0776 2.09765 8 2.09765C9.9224 2.09765 10.1504 2.10485 10.9096 2.13925C11.3659 2.14478 11.8178 2.22867 12.2456 2.38725C12.5587 2.50248 12.8419 2.68646 13.0744 2.92565C13.3135 3.15795 13.4975 3.44088 13.6128 3.75365C13.7715 4.18174 13.8554 4.63393 13.8608 5.09045C13.8952 5.85045 13.9024 6.07765 13.9024 8.00005C13.9024 9.92245 13.8952 10.1504 13.8608 10.9096ZM8 4.30245C7.26868 4.30245 6.55379 4.51931 5.94572 4.92561C5.33766 5.3319 4.86373 5.90939 4.58386 6.58504C4.304 7.26069 4.23077 8.00415 4.37345 8.72142C4.51612 9.43868 4.86828 10.0975 5.3854 10.6146C5.90252 11.1318 6.56137 11.4839 7.27863 11.6266C7.9959 11.7693 8.73936 11.696 9.41501 11.4162C10.0907 11.1363 10.6681 10.6624 11.0744 10.0543C11.4807 9.44626 11.6976 8.73137 11.6976 8.00005C11.6976 7.01938 11.308 6.07889 10.6146 5.38545C9.92116 4.69202 8.98066 4.30245 8 4.30245ZM8 10.4C7.52532 10.4 7.06131 10.2593 6.66663 9.99558C6.27195 9.73186 5.96434 9.35703 5.78269 8.91849C5.60104 8.47995 5.55351 7.99739 5.64612 7.53183C5.73872 7.06628 5.9673 6.63864 6.30294 6.30299C6.63859 5.96735 7.06623 5.73877 7.53178 5.64616C7.99734 5.55356 8.4799 5.60109 8.91844 5.78274C9.35698 5.96439 9.73181 6.272 9.99553 6.66668C10.2592 7.06136 10.4 7.52537 10.4 8.00005C10.4 8.63657 10.1471 9.24702 9.69706 9.69711C9.24697 10.1472 8.63652 10.4 8 10.4ZM12.7072 4.15685C12.7072 4.32773 12.6565 4.49478 12.5616 4.63686C12.4667 4.77895 12.3317 4.88969 12.1738 4.95508C12.016 5.02048 11.8422 5.03759 11.6746 5.00425C11.507 4.97091 11.3531 4.88862 11.2323 4.76779C11.1114 4.64696 11.0291 4.49301 10.9958 4.32541C10.9625 4.15781 10.9796 3.98409 11.045 3.82621C11.1104 3.66834 11.2211 3.5334 11.3632 3.43846C11.5053 3.34352 11.6723 3.29285 11.8432 3.29285C12.0723 3.29285 12.2921 3.38388 12.4541 3.54591C12.6162 3.70794 12.7072 3.9277 12.7072 4.15685Z" fill="#939D92"/>
</svg>
